<svg width="32" height="32" viewBox="0 0 32 32" xmlns="http://www.w3.org/2000/svg">
  <defs>
    <linearGradient id="bj-gradient" x1="0%" y1="0%" x2="100%" y2="100%">
      <stop offset="0%" stop-color="#00b5ff"/>
      <stop offset="100%" stop-color="#0062ff"/>
    </linearGradient>
  </defs>
  <rect width="32" height="32" rx="8" fill="url(#bj-gradient)"/>
  <path d="M10.8 22.5v-13h5.3c2.2 0 3.6 1.3 3.6 3.2 0 1.2-.6 2.3-1.8 2.8 1.4.4 2.2 1.6 2.2 3.1 0 2.3-1.6 3.9-4.2 3.9h-5.1zm3-7.5h1.8c.9 0 1.5-.6 1.5-1.5s-.6-1.4-1.5-1.4h-1.8v2.9zm0 5h2.1c1 0 1.7-.7 1.7-1.6s-.6-1.6-1.8-1.6h-2v3.2z" fill="#ffffff"/>
</svg>

